<?xml version="1.0" standalone="no"?>
<!DOCTYPE svg PUBLIC "-//W3C//DTD SVG 1.1//EN" "http://www.w3.org/Graphics/SVG/1.1/DTD/svg11.dtd" >
<svg xmlns="http://www.w3.org/2000/svg">
<metadata></metadata>
<defs>
<font id="bentonsanscompbold" horiz-adv-x="913" >
<font-face units-per-em="2048" ascent="1638" descent="-410" />
<missing-glyph horiz-adv-x="368" />
<glyph horiz-adv-x="2048" />
<glyph horiz-adv-x="2048" />
<glyph unicode="&#xd;" horiz-adv-x="2048" />
<glyph unicode=" "  horiz-adv-x="368" />
<glyph unicode="&#x09;" horiz-adv-x="368" />
<glyph unicode="&#xa0;" horiz-adv-x="368" />
<glyph unicode="!" horiz-adv-x="550" d="M117 1516h321l-41 -1092h-239zM125 0v281h305v-281h-305z" />
<glyph unicode="&#x22;" horiz-adv-x="731" d="M78 1411v105h241v-105l-24 -432h-193zM414 1411v105h239v-105l-24 -432h-193z" />
<glyph unicode="#" horiz-adv-x="1112" d="M27 414v221h184l37 246h-160v221h195l59 414h248l-60 -414h146l59 414h248l-59 -414h161v-221h-194l-39 -246h170v-221h-203l-59 -414h-248l57 414h-143l-57 -414h-250l57 414h-149zM457 625h149l41 266h-153z" />
<glyph unicode="$" horiz-adv-x="970" d="M45 442l246 45q31 -133 75 -195.5t123 -62.5q71 0 108.5 37t37.5 107q0 54 -30.5 101.5t-79.5 86t-108 78t-118.5 86.5t-108.5 102t-79.5 134.5t-30.5 173.5q0 151 76.5 251.5t216.5 126.5v164h229v-172q121 -33 187 -128.5t106 -260.5l-252 -61q-30 120 -69 172.5 t-105 52.5q-56 0 -86.5 -35t-30.5 -92q0 -56 30.5 -105.5t79.5 -89.5t108.5 -80.5t118.5 -87.5t108 -100t79.5 -128.5t30.5 -164.5q0 -159 -75.5 -260.5t-229.5 -128.5v-198h-229v200q-74 16 -130.5 54t-94 96.5t-62 126t-41.5 155.5z" />
<glyph unicode="%" horiz-adv-x="1628" d="M49 1085q0 210 76.5 329.5t234.5 119.5q161 0 236.5 -117.5t75.5 -326.5q0 -98 -17 -177t-53.5 -140t-97.5 -94.5t-144 -33.5q-162 0 -236.5 117t-74.5 323zM281 1092q0 -147 16.5 -208t62.5 -61q44 0 61 63t17 201q0 140 -17.5 199.5t-62.5 59.5t-61 -57.5t-16 -196.5z M381 0l631 1516h233l-631 -1516h-233zM956 426q0 211 77.5 331t234.5 120q159 0 235 -118.5t76 -326.5q0 -98 -17.5 -177.5t-53.5 -141t-97 -95.5t-143 -34q-83 0 -144 32.5t-97.5 93t-53.5 139t-17 177.5zM1188 434q0 -148 17 -208t63 -60q45 0 61.5 61.5t16.5 202.5 q0 145 -16.5 200.5t-63.5 55.5q-46 0 -62 -57t-16 -195z" />
<glyph unicode="&#x26;" horiz-adv-x="1118" d="M18 362q0 81 20 150t58.5 124.5t78.5 96.5t97 86q-82 196 -82 350q0 119 47.5 203.5t123.5 124t171 39.5q83 0 145 -24.5t98 -67t53.5 -94.5t17.5 -113q0 -60 -14 -113t-37.5 -94.5t-57 -80.5t-68.5 -72t-75 -68q-18 -15 -27 -23q19 -37 62 -108q91 -140 135 -195 q48 133 51 314h236q-28 -290 -111 -473q82 -64 170 -78v-250q-166 6 -319 117q-135 -125 -340 -125q-206 0 -319.5 98.5t-113.5 275.5zM295 389q0 -82 44 -135t132 -53q84 0 145 61q-71 83 -176 240q-57 93 -61 102q-84 -109 -84 -215zM442 1190q0 -105 43 -229 q60 58 92.5 119t32.5 137q0 106 -75 106q-43 0 -68 -36t-25 -97z" />
<glyph unicode="'" horiz-adv-x="401" d="M78 1411v105h246v-105l-25 -432h-197z" />
<glyph unicode="(" horiz-adv-x="647" d="M51 563q0 280 96.5 528.5t264.5 452.5l198 -108q-274 -443 -274 -873q0 -235 76 -470.5t200 -403.5l-200 -109q-167 198 -264 449t-97 534z" />
<glyph unicode=")" horiz-adv-x="647" d="M35 1436l201 108q167 -198 264.5 -449.5t97.5 -533.5q0 -280 -96.5 -528.5t-263.5 -452.5l-201 109q274 443 274 872q0 235 -76 471t-200 404z" />
<glyph unicode="*" horiz-adv-x="999" d="M66 975v235l325 -53l-213 258l211 119l111 -307l116 307l211 -119l-211 -256l320 51v-235l-315 49l204 -248l-207 -121l-118 299l-111 -299l-207 121l203 248z" />
<glyph unicode="+" horiz-adv-x="972" d="M72 561v240h290v393h250v-393h289v-240h-289v-393h-250v393h-290z" />
<glyph unicode="," horiz-adv-x="473" d="M80 0v305h313v-282l-129 -269h-131l72 246h-125z" />
<glyph unicode="-" horiz-adv-x="587" d="M63 514v236h459v-236h-459z" />
<glyph unicode="." horiz-adv-x="473" d="M80 0v305h313v-305h-313z" />
<glyph unicode="/" horiz-adv-x="903" d="M2 0l616 1516h283l-614 -1516h-285z" />
<glyph unicode="0" horiz-adv-x="1009" d="M49 758q0 279 52.5 452t151 248.5t249.5 75.5q153 0 251 -75.5t149.5 -248.5t51.5 -452t-51.5 -451.5t-149.5 -247.5t-251 -75q-113 0 -195.5 42t-141 133t-87.5 240t-29 359zM336 758q0 -208 18 -327.5t53 -167.5t95 -48q62 0 97.5 48.5t53 166.5t17.5 328 q0 209 -18 326t-53 163.5t-97 46.5t-97 -46.5t-52 -163t-17 -326.5z" />
<glyph unicode="1" horiz-adv-x="722" d="M43 0v240h197v1001q-39 -30 -94 -50t-101 -20v246q132 6 201 99h268v-1276h176v-240h-647z" />
<glyph unicode="2" d="M37 0v33q0 117 18.5 216t49.5 169.5t71.5 130t85 105t89 86.5t85 82t71.5 84t49.5 100t18.5 124q0 84 -28 124t-88 40q-59 0 -96.5 -50t-59.5 -189l-258 35q67 444 434 444q182 0 276.5 -103t94.5 -288q0 -99 -28 -187.5t-72 -153.5t-98 -124t-108 -111t-98 -101.5 t-72 -107t-28 -118.5h502v-240h-811z" />
<glyph unicode="3" horiz-adv-x="933" d="M27 381l245 41q24 -110 63.5 -160.5t104.5 -50.5q83 0 120.5 55.5t37.5 177.5q0 147 -56 196.5t-208 49.5h-62v221h78q74 0 118 11t69 39.5t33 67t8 104.5q0 83 -30.5 124t-98.5 41q-61 0 -97 -46t-59 -128l-240 56q92 358 416 358q193 0 286 -99t93 -278 q0 -280 -221 -348q84 -28 136.5 -73t81.5 -125.5t29 -200.5q0 -199 -106.5 -315.5t-316.5 -116.5q-105 0 -180.5 27.5t-123 83t-75 123.5t-45.5 165z" />
<glyph unicode="4" horiz-adv-x="985" d="M27 324v202l473 990h297v-969h159v-223h-159v-324h-269v324h-501zM279 547h258v551h-2z" />
<glyph unicode="5" horiz-adv-x="933" d="M37 381l246 41q22 -113 59.5 -162t101.5 -49q86 0 123 70t37 221q0 150 -33.5 216t-107.5 66q-102 0 -160 -135l-221 35l41 832h700l-12 -238h-453l-20 -377q32 49 92 82t145 33q158 0 234 -122t76 -384q0 -263 -110 -396.5t-316 -133.5q-87 0 -153.5 19.5t-110.5 53 t-76 86t-50 109.5t-32 133z" />
<glyph unicode="6" horiz-adv-x="950" d="M49 731q0 409 109.5 608t347.5 199q82 0 146 -25t107 -72t70 -104t45 -131l-241 -61q-21 73 -52.5 113t-82.5 40q-98 0 -137 -103.5t-39 -344.5q51 54 120 84.5t140 30.5q323 0 323 -461q0 -243 -106 -381.5t-312 -138.5q-224 0 -331 180t-107 567zM322 651 q2 -168 21.5 -265t55.5 -137t95 -40q77 0 114 68t37 210q0 123 -32.5 184.5t-110.5 61.5q-95 0 -180 -82z" />
<glyph unicode="7" horiz-adv-x="813" d="M20 1270v246h773v-232l-406 -1284h-283l412 1270h-496z" />
<glyph unicode="8" horiz-adv-x="958" d="M33 365q0 230 252 421q-49 40 -79.5 70t-62.5 76t-47.5 104.5t-15.5 132.5q0 163 105 268t294 105q195 0 297.5 -104t102.5 -269q0 -114 -56 -210.5t-149 -167.5q47 -34 78 -58.5t67.5 -64t57 -80t35 -97.5t14.5 -124q0 -175 -117.5 -284.5t-329.5 -109.5 q-113 0 -200 30.5t-140 85t-79.5 124t-26.5 152.5zM313 375q0 -79 42.5 -129.5t121.5 -50.5t120.5 49.5t41.5 132.5q0 75 -43 137t-127 127q-73 -61 -114.5 -124.5t-41.5 -141.5zM354 1163q0 -74 35 -128t100 -109q123 114 123 231q0 72 -31.5 114t-97.5 42q-64 0 -96.5 -40 t-32.5 -110z" />
<glyph unicode="9" horiz-adv-x="950" d="M45 1008q0 242 106.5 384t311.5 142q224 0 330 -179.5t106 -566.5q0 -411 -107.5 -609.5t-345.5 -198.5q-83 0 -147.5 25t-107 71.5t-70 103.5t-45.5 131l239 60q24 -75 55.5 -117.5t82.5 -42.5q99 0 137.5 103t38.5 356q-51 -54 -120.5 -85.5t-139.5 -31.5 q-324 0 -324 455zM305 1024q0 -122 32.5 -180t111.5 -58q98 0 180 82q-3 237 -43.5 334.5t-128.5 97.5q-77 0 -114.5 -67t-37.5 -209z" />
<glyph unicode=":" horiz-adv-x="483" d="M88 0v305h307v-305h-307zM88 784v308h307v-308h-307z" />
<glyph unicode=";" horiz-adv-x="483" d="M88 0v305h307v-282l-129 -269h-127l72 246h-123zM88 784v308h307v-308h-307z" />
<glyph unicode="&#x3c;" horiz-adv-x="972" d="M98 565v197l750 420v-246l-498 -272l498 -273v-246z" />
<glyph unicode="=" horiz-adv-x="972" d="M68 344v221h835v-221h-835zM68 770v219h835v-219h-835z" />
<glyph unicode="&#x3e;" horiz-adv-x="972" d="M125 145v246l498 273l-498 272v246l749 -420v-197z" />
<glyph unicode="?" horiz-adv-x="851" d="M31 1143q82 391 418 391q172 0 267 -95t95 -265q0 -108 -50 -202t-138 -196q-75 -88 -93 -151t-18 -203h-244q-3 85 3.5 146.5t26.5 112.5t41.5 86t61.5 89q5 7 23.5 32.5t24.5 33.5t21.5 30.5t21 32.5l16.5 30t15 33.5t10 31.5t8 35.5t2 35.5q0 143 -111 143 q-60 0 -96 -50.5t-60 -145.5zM233 0v281h308v-281h-308z" />
<glyph unicode="@" horiz-adv-x="1312" d="M49 756q0 188 45 338t125.5 248t192 150t245.5 52q271 0 438 -206t167 -560q0 -456 -310 -456q-174 0 -235 143q-80 -143 -201 -143q-106 0 -157.5 101.5t-45.5 278.5q8 244 77.5 376t199.5 132q111 0 155 -110l9 92h204l-53 -588q-7 -90 12.5 -124t69.5 -34 q32 0 56.5 15t45 51t31 103.5t10.5 164.5q0 320 -129 485t-348 165q-107 0 -192 -39t-148.5 -118.5t-98 -209t-34.5 -301.5q0 -341 128 -506.5t349 -165.5q87 0 178.5 21t151.5 59l53 -102q-64 -43 -176.5 -70t-208.5 -27q-289 0 -447.5 202.5t-158.5 582.5zM530 727 q-9 -215 70 -215q43 0 88 45l41 420q-30 45 -80 45q-108 0 -119 -295z" />
<glyph unicode="A" horiz-adv-x="983" d="M12 0l336 1522h287l336 -1522h-283l-65 340h-295l-66 -340h-250zM367 539h219l-27 137q-6 34 -20 110.5t-21 116.5t-18 113t-21 151h-8q-9 -79 -19.5 -151.5t-17 -111t-21 -114.5t-20.5 -108z" />
<glyph unicode="B" horiz-adv-x="1007" d="M96 0v1516h387q439 0 439 -379q0 -163 -58 -243t-157 -108v-4q55 -13 96 -37t76.5 -65t54 -108t18.5 -158q0 -88 -22.5 -158.5t-62 -117.5t-96 -78.5t-122 -45.5t-143.5 -14h-410zM377 221h112q95 0 138 54.5t43 173.5q0 123 -47.5 175t-145.5 52h-100v-455zM377 877h98 q86 0 126 45.5t40 158.5t-37.5 155t-128.5 42h-98v-401z" />
<glyph unicode="C" horiz-adv-x="1005" d="M49 758q0 776 475 776q214 0 314 -135.5t118 -419.5l-272 -25q-13 180 -49 252t-111 72q-101 0 -142.5 -123t-41.5 -397q0 -277 43 -403t143 -126q79 0 117 72.5t55 263.5l273 -26q-15 -124 -43.5 -218.5t-79.5 -173.5t-132.5 -121t-191.5 -42q-234 0 -354.5 184 t-120.5 590z" />
<glyph unicode="D" horiz-adv-x="1050" d="M96 0v1516h328q112 0 196 -19.5t158.5 -70t121.5 -134.5t74 -217t27 -313q0 -182 -27.5 -316.5t-75.5 -219t-122.5 -136t-158 -71t-193.5 -19.5h-328zM383 242h78q145 0 197.5 112.5t52.5 407.5q0 148 -11.5 241.5t-41 155t-77 86.5t-122.5 25h-76v-1028z" />
<glyph unicode="E" horiz-adv-x="858" d="M96 0v1516h705v-246h-418v-359h299v-231h-299v-440h436v-240h-723z" />
<glyph unicode="F" horiz-adv-x="823" d="M96 0v1516h703v-246h-416v-383h303v-230h-303v-657h-287z" />
<glyph unicode="G" horiz-adv-x="1044" d="M49 760q0 774 473 774q192 0 291.5 -131t134.5 -426l-260 -31q-17 187 -54 259.5t-112 72.5q-64 0 -103 -47.5t-60 -162t-21 -306.5q0 -282 50 -408.5t147 -126.5q87 0 133 71.5t53 227.5h-174v222h420v-748h-191l-4 186h-2q-30 -90 -104.5 -145t-178.5 -55 q-231 0 -334.5 187.5t-103.5 586.5z" />
<glyph unicode="H" horiz-adv-x="1077" d="M96 0v1516h287v-601h311v601h289v-1516h-289v680h-311v-680h-287z" />
<glyph unicode="I" horiz-adv-x="499" d="M106 0v1516h287v-1516h-287z" />
<glyph unicode="J" horiz-adv-x="776" d="M8 63l103 213q96 -57 172 -57q64 0 92 40t28 130v1127h289v-1154q0 -200 -92 -292.5t-276 -92.5q-181 0 -316 86z" />
<glyph unicode="K" horiz-adv-x="997" d="M96 0v1516h281v-691q38 121 133 332l172 359h279l-302 -603l338 -913h-290l-240 655l-90 -186v-469h-281z" />
<glyph unicode="L" horiz-adv-x="833" d="M96 0v1516h287v-1276h422v-240h-709z" />
<glyph unicode="M" horiz-adv-x="1288" d="M96 0v1516h346l197 -1074h8l197 1074h348v-1516h-258v1071h-6q-5 -52 -13.5 -107.5t-15 -89.5t-19.5 -98.5t-18 -91.5l-129 -684h-211l-131 702q-48 235 -63 369h-6v-1071h-226z" />
<glyph unicode="N" horiz-adv-x="1069" d="M96 0v1516h301l244 -642q90 -265 100 -301h7v943h227v-1516h-246l-297 741q-68 176 -104 295h-6v-1036h-226z" />
<glyph unicode="O" horiz-adv-x="1071" d="M49 758q0 203 35 354t100.5 242.5t153 135.5t199.5 44q111 0 198.5 -44t153 -135.5t100.5 -242.5t35 -354t-35 -353.5t-100.5 -241.5t-153 -135t-198.5 -44q-112 0 -199.5 44t-153 135t-100.5 241.5t-35 353.5zM340 758q0 -269 46.5 -398t150.5 -129t149 128.5t45 398.5 q0 269 -45 394.5t-149 125.5t-150.5 -126t-46.5 -394z" />
<glyph unicode="P" horiz-adv-x="966" d="M96 0v1516h357q479 0 479 -492q0 -123 -28 -215.5t-72.5 -147t-110.5 -87.5t-131 -44.5t-144 -11.5h-67v-518h-283zM379 754h84q101 0 143.5 59t42.5 205q0 141 -42.5 196.5t-145.5 55.5h-82v-516z" />
<glyph unicode="Q" horiz-adv-x="1073" d="M49 758q0 203 35 354t100.5 242.5t153 135.5t199.5 44q111 0 198.5 -44t153 -135.5t100.5 -242.5t35 -354q0 -179 -26.5 -316.5t-77 -226.5t-116 -140.5t-149.5 -70.5q9 -99 53.5 -133.5t151.5 -34.5h64v-242h-136q-92 0 -161 22t-111.5 58t-68.5 90.5t-36 112.5t-10 131 q-352 92 -352 750zM340 758q0 -269 46.5 -400t150.5 -131q103 0 148.5 130t45.5 401q0 269 -45 394.5t-149 125.5t-150.5 -126t-46.5 -394z" />
<glyph unicode="R" horiz-adv-x="1001" d="M96 0v1516h373q461 0 461 -482q0 -129 -45 -238.5t-150 -170.5l219 -625h-284l-191 541h-102v-541h-281zM377 770h92q95 0 137.5 56.5t42.5 201.5q0 138 -42.5 190t-141.5 52h-88v-500z" />
<glyph unicode="S" horiz-adv-x="966" d="M43 442l250 45q27 -136 71.5 -202t129.5 -66q68 0 102.5 40.5t34.5 100.5q0 52 -30.5 103t-79.5 95t-107.5 90t-117.5 98t-108 109.5t-79.5 133.5t-30.5 160q0 179 110 284t297 105q93 0 163.5 -29.5t119 -87.5t80.5 -132t55 -175l-254 -63q-27 124 -66.5 181.5 t-107.5 57.5q-55 0 -86 -33t-31 -90q0 -52 30.5 -102.5t79.5 -94t107.5 -89.5t117.5 -98.5t108 -110t79.5 -134t30.5 -161.5q0 -177 -115.5 -287t-303.5 -110q-87 0 -156.5 23.5t-116.5 62.5t-82 100t-56.5 126t-37.5 150z" />
<glyph unicode="T" horiz-adv-x="876" d="M23 1270v246h831v-246h-272v-1270h-289v1270h-270z" />
<glyph unicode="U" horiz-adv-x="1024" d="M84 477v1039h287v-1020q0 -147 33.5 -209t117.5 -62q82 0 116 62t34 205v1024h268v-1035q0 -252 -98.5 -374.5t-325.5 -122.5q-229 0 -330.5 123.5t-101.5 369.5z" />
<glyph unicode="V" horiz-adv-x="976" d="M12 1516h285l127 -672q52 -279 76 -477h8q19 167 74 471l129 678h254l-334 -1522h-287z" />
<glyph unicode="W" horiz-adv-x="1390" d="M16 1516h279l86 -596q39 -276 53 -445h6q24 222 60 445l88 596h237l90 -594q50 -324 62 -447h6q14 182 51 438l88 603h246l-266 -1520h-246l-160 1020h-8l-160 -1020h-245z" />
<glyph unicode="X" horiz-adv-x="987" d="M14 0l334 795l-295 721h293l166 -431l156 431h262l-295 -701l332 -815h-293l-201 510l-197 -510h-262z" />
<glyph unicode="Y" horiz-adv-x="942" d="M-4 1516h291l192 -654h6l193 654h270l-334 -969v-547h-288v547z" />
<glyph unicode="Z" horiz-adv-x="903" d="M29 0v217l516 1053h-475v246h790v-226l-516 -1050h516v-240h-831z" />
<glyph unicode="[" horiz-adv-x="636" d="M88 -410v1926h520v-211h-235v-1510h235v-205h-520z" />
<glyph unicode="\" horiz-adv-x="903" d="M2 1516h285l614 -1516h-283z" />
<glyph unicode="]" horiz-adv-x="636" d="M29 -205h237v1510h-237v211h522v-1926h-522v205z" />
<glyph unicode="^" horiz-adv-x="833" d="M141 1192l185 330h184l182 -330h-160l-116 131l-117 -131h-158z" />
<glyph unicode="_" horiz-adv-x="768" d="M-31 -94h830v-207h-830v207z" />
<glyph unicode="`" horiz-adv-x="798" d="M117 1522h266l135 -326h-196z" />
<glyph unicode="a" horiz-adv-x="856" d="M35 279q0 164 132 280.5t349 165.5v45q0 59 -19 85t-67 26q-57 0 -120.5 -36t-108.5 -79l-135 172q83 82 190 126t221 44q163 0 233 -80t70 -248v-514q0 -187 23 -266h-271q-16 59 -16 143q-96 -153 -254 -153q-103 0 -165 71t-62 218zM297 319q0 -53 22.5 -79.5 t61.5 -26.5q64 0 135 66v256q-110 -33 -164.5 -89t-54.5 -127z" />
<glyph unicode="b" horiz-adv-x="911" d="M80 0v1513h274v-552q90 147 230 147q288 0 288 -561q0 -289 -76.5 -424t-213.5 -135q-146 0 -228 139v-127h-274zM354 283q33 -35 61 -52.5t62 -17.5q62 0 89.5 73.5t27.5 258.5q0 181 -27.5 251t-91.5 70q-24 0 -49.5 -13t-38 -24t-33.5 -32v-514z" />
<glyph unicode="c" horiz-adv-x="831" d="M39 545q0 283 110 423t289 140q168 0 251.5 -98t111.5 -283l-252 -39q-16 110 -39.5 157.5t-73.5 47.5q-64 0 -94.5 -78.5t-30.5 -269.5t28.5 -273t96.5 -82q52 0 80 50.5t43 167.5l246 -35q-58 -389 -373 -389q-178 0 -285.5 141t-107.5 420z" />
<glyph unicode="d" horiz-adv-x="911" d="M41 545q0 291 76 427t213 136q139 0 227 -135v543h277v-1250q0 -190 22 -266h-283q-5 23 -10.5 68t-5.5 55q-92 -135 -227 -135q-289 0 -289 557zM319 547q0 -185 27 -258.5t90 -73.5q25 0 48.5 11t36.5 22.5t36 34.5v514q-63 71 -121 71q-43 0 -68 -28t-37 -98t-12 -195 z" />
<glyph unicode="e" horiz-adv-x="843" d="M39 545q0 144 29.5 254t83 176.5t124 99.5t156.5 33q98 0 170.5 -41t116.5 -118t65 -179t21 -231v-88h-504q2 -124 37.5 -192.5t105.5 -68.5q58 0 94 42t60 120l209 -73q-45 -142 -138 -218.5t-229 -76.5q-187 0 -294 140t-107 421zM303 631h248q-1 139 -30.5 201.5 t-88.5 62.5q-124 0 -129 -264z" />
<glyph unicode="f" horiz-adv-x="585" d="M18 881v211h123v122q0 71 13 123t46 95.5t96 65.5t157 22q71 0 120 -7v-217q-5 0 -27 1t-30 1q-51 0 -75.5 -22t-24.5 -80v-104h151v-211h-151v-881h-275v881h-123z" />
<glyph unicode="g" horiz-adv-x="890" d="M-2 -172q0 73 39 131t110 94q-86 50 -86 144q0 50 33 103.5t88 94.5q-135 110 -135 318q0 185 103.5 290t265.5 105q166 0 260 -102q39 41 93.5 71.5t100.5 38.5v-254q-52 0 -108 -10q20 -72 20 -139q0 -190 -101.5 -292t-264.5 -102q-60 0 -109 15q-24 -21 -24 -47 q0 -27 16 -38.5t61 -17.5l136 -14q193 -17 273.5 -86.5t80.5 -208.5q0 -151 -129.5 -241.5t-343.5 -90.5q-188 0 -283.5 62t-95.5 176zM252 -117q0 -68 41.5 -98.5t128.5 -30.5q84 0 131 35t47 96q0 55 -33.5 81.5t-122.5 35.5l-137 14q-55 -58 -55 -133zM309 709 q0 -207 109 -207q108 0 108 207q0 106 -25.5 153t-82.5 47t-83 -48.5t-26 -151.5z" />
<glyph unicode="h" d="M80 0v1516h274v-562q43 60 118.5 107t158.5 47q102 0 155.5 -58t53.5 -198v-852h-275v758q0 54 -15.5 79t-51.5 25q-64 0 -144 -71v-791h-274z" />
<glyph unicode="i" horiz-adv-x="454" d="M90 0v1092h275v-1092h-275zM90 1221v260h277v-260h-277z" />
<glyph unicode="j" horiz-adv-x="454" d="M-41 -195q12 -4 51 -4q80 0 80 101v1190h275v-1192q0 -162 -65.5 -237t-229.5 -75q-17 0 -62.5 2.5t-48.5 3.5v211zM90 1221v260h277v-260h-277z" />
<glyph unicode="k" horiz-adv-x="847" d="M80 0v1516h266v-895q22 76 82 206l121 265h260l-215 -406l240 -686h-273l-143 432l-72 -135v-297h-266z" />
<glyph unicode="l" horiz-adv-x="454" d="M90 0v1516h275v-1516h-275z" />
<glyph unicode="m" horiz-adv-x="1378" d="M80 0v1092h274v-138q43 60 116 107t151 47q87 0 135 -37t65 -119q46 62 121.5 109t151.5 47q108 0 159.5 -61.5t51.5 -200.5v-846h-275v758q0 55 -14.5 79.5t-52.5 24.5q-51 0 -134 -71v-791h-274v758q0 55 -14.5 80.5t-51.5 25.5q-54 0 -135 -73v-791h-274z" />
<glyph unicode="n" d="M80 0v1092h274v-138q43 60 118.5 107t158.5 47q102 0 155.5 -58t53.5 -198v-852h-275v758q0 54 -15.5 79t-51.5 25q-64 0 -144 -71v-791h-274z" />
<glyph unicode="o" horiz-adv-x="882" d="M39 547q0 283 108.5 422t294.5 139q183 0 293.5 -139.5t110.5 -421.5q0 -279 -111 -420t-293 -141q-183 0 -293 141t-110 420zM311 549q0 -186 29.5 -272.5t101.5 -86.5q69 0 98 82t29 277q0 185 -27.5 264.5t-99.5 79.5q-71 0 -101 -77t-30 -267z" />
<glyph unicode="p" horiz-adv-x="911" d="M80 -410v1502h274v-131q90 147 230 147q288 0 288 -561q0 -289 -76.5 -424t-213.5 -135q-146 0 -228 139v-537h-274zM354 283q33 -35 61 -52.5t62 -17.5q62 0 89.5 73.5t27.5 258.5q0 181 -27.5 251t-91.5 70q-24 0 -49.5 -13t-38 -24t-33.5 -32v-514z" />
<glyph unicode="q" horiz-adv-x="911" d="M41 545q0 291 76 427t213 136q135 0 227 -135v119h274v-1502h-274v533q-92 -135 -227 -135q-289 0 -289 557zM319 547q0 -185 27 -258.5t90 -73.5q25 0 48.5 11t36.5 22.5t36 34.5v514q-63 71 -121 71q-43 0 -68 -28t-37 -98t-12 -195z" />
<glyph unicode="r" horiz-adv-x="645" d="M80 0v1092h274v-177h2q37 84 99 138.5t149 54.5l25 -2l-4 -260q-16 4 -45 4q-73 0 -134.5 -30t-91.5 -72v-748h-274z" />
<glyph unicode="s" horiz-adv-x="806" d="M10 252l203 94q33 -80 82.5 -121t107.5 -41q47 0 77 23.5t30 66.5q0 34 -25 63t-65.5 52t-89.5 48t-97.5 58t-89 72.5t-65.5 100.5t-25 135q0 78 32 139.5t83.5 97t109.5 54t117 18.5q134 0 223 -61t144 -191l-205 -94q-54 135 -158 135q-39 0 -62.5 -22t-23.5 -60 q0 -35 25 -65t65.5 -54t89.5 -49t97.5 -57.5t89 -72t65.5 -99.5t25 -133q0 -142 -98 -224.5t-264 -82.5q-278 0 -398 270z" />
<glyph unicode="t" horiz-adv-x="632" d="M14 881v211h121v374h275v-374h188v-211h-188v-557q0 -78 21.5 -102.5t82.5 -24.5q56 0 76 10v-201q-42 -14 -164 -14q-157 0 -224 56.5t-67 193.5v639h-121z" />
<glyph unicode="u" d="M74 240v852h272v-762q0 -53 16.5 -79t55.5 -26q56 0 139 74v793h277v-1092h-277v137q-43 -58 -117.5 -104.5t-154.5 -46.5q-105 0 -158 56.5t-53 197.5z" />
<glyph unicode="v" horiz-adv-x="798" d="M2 1092h270l90 -469q38 -221 50 -334h6q19 151 51 334l88 469h238l-248 -1096h-295z" />
<glyph unicode="w" horiz-adv-x="1148" d="M2 1092h258l70 -433q17 -116 32 -264h7q16 132 39 271l75 426h224l75 -435q13 -80 37 -262h8q7 66 35 260l68 437h217l-209 -1096h-238l-122 678h-7l-122 -678h-238z" />
<glyph unicode="x" horiz-adv-x="813" d="M8 0l264 563l-243 529h276l123 -301l111 301h245l-243 -521l262 -571h-277l-137 334l-135 -334h-246z" />
<glyph unicode="y" horiz-adv-x="825" d="M-20 -385l47 221q63 -14 110 -14q53 0 78.5 24t40.5 84l20 72l-274 1090h283l92 -506q26 -172 39 -285h6q17 137 43 283l98 508h260l-309 -1192q-43 -168 -114.5 -241t-215.5 -73q-119 0 -204 29z" />
<glyph unicode="z" horiz-adv-x="763" d="M33 0v168l370 713h-335v211h647v-177l-375 -714h395v-201h-702z" />
<glyph unicode="{" horiz-adv-x="667" d="M31 449v208q101 0 129 37t28 168v371q0 139 69 211t224 72h168v-211h-61q-63 0 -88 -33t-25 -109v-313q0 -98 -18 -158t-49 -88.5t-86 -48.5v-4q55 -20 86 -48.5t49 -88.5t18 -158v-330q0 -71 26 -101t87 -30h61v-205h-186q-138 0 -206.5 73.5t-68.5 209.5v371 q0 91 -13.5 133.5t-45 57t-98.5 14.5z" />
<glyph unicode="|" horiz-adv-x="600" d="M160 -410v1926h280v-1926h-280z" />
<glyph unicode="}" horiz-adv-x="667" d="M16 -207h62q61 0 86.5 31t25.5 102v330q0 98 18.5 158t49.5 88.5t86 48.5v4q-55 20 -86 48.5t-49.5 88.5t-18.5 158v313q0 76 -24.5 110t-87.5 34h-62v209h168q155 0 224 -72t69 -211v-371q0 -131 28.5 -168t129.5 -37v-208q-68 0 -99.5 -14.5t-45 -57t-13.5 -133.5v-371 q0 -137 -68 -210t-206 -73h-187v203z" />
<glyph unicode="~" horiz-adv-x="815" d="M94 766q0 326 191 326q40 0 78 -18t62 -39.5t51.5 -39.5t47.5 -18q30 0 45 25t15 85h139q0 -325 -191 -325q-40 0 -78 18t-62.5 39.5t-51.5 39.5t-47 18q-62 0 -62 -111h-137z" />
<glyph unicode="&#xa1;" horiz-adv-x="550" d="M113 0l39 1092h239l41 -1092h-319zM119 1235v281h307v-281h-307z" />
<glyph unicode="&#xa2;" horiz-adv-x="831" d="M39 545q0 234 76 372.5t207 178.5v209h215v-201q118 -28 179.5 -121.5t84.5 -249.5l-252 -39q-16 109 -40 157t-73 48q-64 0 -94.5 -81t-30.5 -273t28.5 -277.5t96.5 -85.5q53 0 79.5 47t43.5 172l246 -34q-48 -321 -268 -377v-254h-215v258q-131 40 -207 179.5 t-76 371.5z" />
<glyph unicode="&#xa3;" horiz-adv-x="1077" d="M-2 219q0 119 69 182.5t185 63.5q81 0 158 -51v18q0 100 -58 244h-233v190h151q-75 179 -75 293q0 175 99 276t269 101q177 0 265 -102.5t100 -311.5l-256 -24q-7 107 -30.5 158t-80.5 51q-44 0 -71 -35t-27 -109q0 -46 13 -100.5t27 -91.5t42 -105h266v-190h-197 q35 -126 35 -232q0 -103 -33 -204q54 -35 97 -35q53 0 71.5 52.5t18.5 203.5h252q0 -246 -72.5 -362.5t-243.5 -116.5q-109 0 -217 104q-101 -104 -256 -104q-114 0 -191 61t-77 176zM197 227q0 -36 19 -56.5t52 -20.5q77 0 113 90q-67 67 -117 67q-30 0 -48.5 -21.5 t-18.5 -58.5z" />
<glyph unicode="&#xa4;" horiz-adv-x="1052" d="M23 512v190h118v58v47h-118v190h131q14 129 45 225.5t70.5 155t93.5 94.5t107 49t118 13q195 0 290.5 -114.5t114.5 -368.5l-248 -21q-15 153 -46 208.5t-105 55.5q-37 0 -63.5 -12.5t-49.5 -44t-37 -91.5t-20 -149h258v-190h-266v-49v-56h266v-190h-258q7 -94 22 -155.5 t38.5 -92t47.5 -41t58 -10.5q85 0 118 53.5t48 216.5l252 -18q-7 -83 -20 -147t-42.5 -129.5t-73.5 -108t-116.5 -69.5t-167.5 -27q-93 0 -163.5 27.5t-126.5 88t-92 163.5t-52 249h-131z" />
<glyph unicode="&#xa5;" horiz-adv-x="958" d="M8 1516h293l188 -637h5l186 637h268l-303 -859h242v-190h-266v-102h266v-191h-266v-174h-287v174h-262v191h262v102h-262v190h235z" />
<glyph unicode="&#xa6;" horiz-adv-x="600" d="M160 -410v838h280v-838h-280zM160 678v838h280v-838h-280z" />
<glyph unicode="&#xa7;" horiz-adv-x="944" d="M51 602q0 93 44 179t120 145q-92 120 -92 256q0 157 94 260.5t270 103.5q180 0 269 -98t112 -297l-243 -43q-30 213 -140 213q-100 0 -100 -123q0 -29 12 -58t26 -49t46 -49t52 -44t64 -47q10 -7 15 -11q57 -40 88.5 -64.5t76.5 -67.5t68.5 -81t41.5 -93t18 -116 q0 -95 -45 -182t-123 -146q92 -117 92 -251q0 -159 -91.5 -262t-268.5 -103q-178 0 -265.5 97.5t-111.5 297.5l246 43q15 -109 46.5 -161t86.5 -52q94 0 94 121q0 65 -44 117.5t-134 118.5l-33 24q-41 30 -62 45.5t-57.5 45.5t-56 52t-45 56t-38.5 65.5t-22.5 72.5t-9.5 85z M313 637q0 -46 28 -91.5t62 -75.5t99 -81q27 -24 53 -41q76 57 76 133q0 67 -44.5 119.5t-140.5 126.5q-22 17 -59 43q-74 -61 -74 -133z" />
<glyph unicode="&#xa8;" horiz-adv-x="817" d="M121 1194v264h231v-264h-231zM463 1194v264h233v-264h-233z" />
<glyph unicode="&#xa9;" horiz-adv-x="1183" d="M43 754q0 221 68.5 401t195 284.5t287.5 104.5q162 0 287.5 -103.5t192.5 -281t67 -397.5q0 -221 -68.5 -401t-194.5 -285t-286 -105q-162 0 -288.5 103.5t-193.5 281t-67 398.5zM180 762q0 -189 51 -340t145.5 -238.5t217.5 -87.5t217 86t143.5 235t49.5 337 q0 189 -50.5 340t-144.5 238t-217 87q-124 0 -218 -85.5t-144 -234.5t-50 -337zM336 766q0 220 67.5 334t196.5 114q107 0 161 -78t70 -216l-153 -21q-10 72 -27.5 106.5t-56.5 34.5q-90 0 -90 -274q0 -270 90 -270q37 0 58 35t28 114l158 -20q-22 -147 -77.5 -226.5 t-162.5 -79.5q-127 0 -194.5 113.5t-67.5 333.5z" />
<glyph unicode="&#xaa;" horiz-adv-x="681" d="M63 940q0 116 85.5 195t246.5 118v45q0 39 -10 57.5t-37 18.5q-72 0 -117 -82l-141 64q65 178 275 178q118 0 172.5 -56t54.5 -178v-360q0 -133 16 -190h-198q-14 54 -15 69q-68 -86 -162 -86q-75 0 -122.5 52.5t-47.5 154.5zM256 965q0 -68 53 -68q39 0 86 41v184 q-139 -40 -139 -157z" />
<glyph unicode="&#xab;" horiz-adv-x="917" d="M31 543l209 538h254l-203 -538l203 -543h-254zM422 543l207 538h254l-203 -538l203 -543h-254z" />
<glyph unicode="&#xac;" horiz-adv-x="1597" d="M41 614v285l254 -18l-27 342h66v65l342 -24l-19 252h285l-20 -252l342 24v-65h65l-24 -342l251 18v-285l-251 21l24 -342h-65v-66l-342 27l20 -254h-285l19 254l-342 -27v66h-66l27 342zM479 635l13 -184l184 -13v197h-197zM479 881h197v196l-184 -12zM922 438l184 13 l12 184h-196v-197zM922 881h196l-12 184l-184 12v-196z" />
<glyph unicode="&#xad;" horiz-adv-x="948" d="M63 514v236h820v-236h-820z" />
<glyph unicode="&#xae;" horiz-adv-x="1183" d="M43 754q0 221 68.5 401t195 284.5t287.5 104.5q162 0 287.5 -103.5t192.5 -281t67 -397.5q0 -221 -68.5 -401t-194.5 -285t-286 -105q-162 0 -288.5 103.5t-193.5 281t-67 398.5zM174 762q0 -192 52.5 -347t148.5 -244t219 -89t218 87.5t146.5 240t51.5 344.5t-52 347 t-147.5 244t-218.5 89t-218.5 -87.5t-147.5 -240.5t-52 -344zM362 348v850h232q248 0 248 -276q0 -184 -99 -248l107 -326h-174l-96 297h-48v-297h-170zM532 795h54q48 0 69 27.5t21 92.5q0 64 -20 90.5t-70 26.5h-54v-237z" />
<glyph unicode="&#xaf;" horiz-adv-x="798" d="M119 1235v211h561v-211h-561z" />
<glyph unicode="&#xb0;" horiz-adv-x="583" d="M53 1241q0 130 65.5 211.5t174.5 81.5q108 0 172.5 -80.5t64.5 -210.5q0 -131 -64.5 -213t-172.5 -82q-109 0 -174.5 81.5t-65.5 211.5zM215 1241q0 -156 78 -156q76 0 76 156q0 160 -76 160q-78 0 -78 -160z" />
<glyph unicode="&#xb1;" horiz-adv-x="1458" d="M18 881v211h123v122q0 71 13 123t45 95t92 65.5t147 22.5q56 0 105 -7v-217q-5 0 -20 1t-23 1q-45 0 -64.5 -25.5t-19.5 -76.5v-104h198v122q0 144 67 225t224 81q61 0 103 -7v-217q-10 2 -41 2q-78 0 -78 -102v-104h115v-211h-115v-881h-275v881h-198v-881h-275v881 h-123zM1087 0v1516h277v-1516h-277z" />
<glyph unicode="&#xb2;" horiz-adv-x="671" d="M61 1249q31 143 99 219t188 76q123 0 187.5 -66.5t64.5 -191.5q0 -66 -21.5 -124t-54 -98.5t-71.5 -81t-73 -72t-60 -70.5t-31 -78h313v-180h-539v36q0 89 18 161.5t47.5 119.5t64.5 86t70 70.5t64.5 63t47.5 73t18 92.5q0 74 -51 74q-34 0 -55 -29t-39 -115z" />
<glyph unicode="&#xb3;" horiz-adv-x="671" d="M47 829l174 48q34 -140 98 -140q80 0 80 111q0 90 -28.5 123t-112.5 33h-57v153h65q68 0 95.5 31.5t27.5 99.5q0 78 -59 78q-65 0 -94 -115l-168 52q28 115 97.5 178t172.5 63q133 0 190.5 -62t57.5 -182q0 -163 -115 -215q70 -29 101.5 -86.5t31.5 -150.5 q0 -130 -73 -207.5t-203 -77.5q-126 0 -189 64.5t-92 201.5z" />
<glyph unicode="&#xb4;" horiz-adv-x="798" d="M252 1196l135 326h266l-204 -326h-197z" />
<glyph unicode="&#xb5;" horiz-adv-x="919" d="M80 -410v1502h272v-775q0 -54 16.5 -79t55.5 -25q53 0 139 72v807h277v-1092h-277v129q-67 -88 -153 -113q-36 -7 -58 4v-430h-272z" />
<glyph unicode="&#xb6;" horiz-adv-x="1071" d="M51 1096q0 181 94.5 300.5t243.5 119.5h592v-1926h-240v1690h-96v-1690h-237v1092q-164 3 -260.5 110t-96.5 304z" />
<glyph unicode="&#xb7;" horiz-adv-x="587" d="M121 494v307h317v-307h-317z" />
<glyph unicode="&#xb8;" horiz-adv-x="798" d="M147 -344l50 104q35 -22 87 -37.5t103 -15.5q78 0 78 62q0 51 -51 51q-36 0 -64 -31l-86 37l51 176h123l-24 -94q33 29 92 29q57 0 94 -37.5t37 -112.5q0 -88 -63 -142.5t-177 -54.5q-138 0 -250 66z" />
<glyph unicode="&#xb9;" horiz-adv-x="608" d="M96 571v181h117v544q-57 -24 -115 -24v184q82 3 127 60h197v-764h106v-181h-432z" />
<glyph unicode="&#xba;" horiz-adv-x="679" d="M59 1133q0 195 74 298t207 103t207 -103t74 -298q0 -194 -74.5 -297t-206.5 -103q-131 0 -206 103.5t-75 296.5zM260 1135q0 -127 18 -180.5t62 -53.5q43 0 61.5 52t18.5 182q0 124 -18 175.5t-62 51.5t-62 -49.5t-18 -177.5z" />
<glyph unicode="&#xbb;" horiz-adv-x="917" d="M35 0l203 541l-203 540h254l209 -540l-209 -541h-254zM426 0l203 541l-203 540h252l209 -540l-209 -541h-252z" />
<glyph unicode="&#xbc;" horiz-adv-x="1568" d="M96 571v181h117v544q-57 -24 -115 -24v184q82 3 127 60h197v-764h106v-181h-432zM381 0l633 1516h233l-631 -1516h-235zM926 195v145l291 608h215v-581h96v-172h-96v-195h-199v195h-307zM1108 367h131v264h-8z" />
<glyph unicode="&#xbd;" horiz-adv-x="1634" d="M96 571v181h117v544q-57 -24 -115 -24v184q82 3 127 60h197v-764h106v-181h-432zM381 0l633 1516h233l-631 -1516h-235zM1024 668q31 143 99 219t188 76q123 0 187.5 -66.5t64.5 -191.5q0 -78 -30 -144.5t-73.5 -113.5t-88 -88.5t-79.5 -87.5t-41 -91h314v-180h-539v37 q0 89 18.5 161.5t47.5 119.5t64.5 85.5t71 70t64.5 63t47.5 73t18.5 92.5q0 74 -53 74q-34 0 -56 -28.5t-39 -114.5z" />
<glyph unicode="&#xbe;" horiz-adv-x="1599" d="M47 829l174 48q34 -140 98 -140q80 0 80 111q0 90 -28.5 123t-112.5 33h-57v153h65q68 0 95.5 31.5t27.5 99.5q0 78 -59 78q-65 0 -94 -115l-168 52q28 115 97.5 178t172.5 63q133 0 190.5 -62t57.5 -182q0 -163 -115 -215q70 -29 101.5 -86.5t31.5 -150.5 q0 -130 -73 -207.5t-203 -77.5q-126 0 -189 64.5t-92 201.5zM410 0l632 1516h236l-633 -1516h-235zM956 195v145l291 608h215v-581h97v-172h-97v-195h-200v195h-306zM1139 367h129v264h-8z" />
<glyph unicode="&#xbf;" horiz-adv-x="851" d="M39 344q0 108 50.5 201t139.5 194q73 90 91 153t18 202h244q4 -84 -2.5 -146t-26.5 -113t-41 -85t-61 -88q-5 -7 -24.5 -33.5t-25 -34t-21.5 -30.5t-21 -32.5t-16.5 -30t-15.5 -33.5t-10 -31t-8 -35t-2 -35q0 -146 113 -146q60 0 94.5 50.5t58.5 148.5l246 -45 q-79 -391 -416 -391q-174 0 -269 94.5t-95 265.5zM311 1235v281h305v-281h-305z" />
<glyph unicode="&#xc0;" horiz-adv-x="983" d="M12 0l336 1522h287l336 -1522h-283l-65 340h-295l-66 -340h-250zM213 1933h266l135 -325h-196zM367 539h219l-27 137q-6 34 -20 110.5t-21 116.5t-18 113t-21 151h-8q-9 -79 -19.5 -151.5t-17 -111t-21 -114.5t-20.5 -108z" />
<glyph unicode="&#xc1;" horiz-adv-x="983" d="M12 0l336 1522h287l336 -1522h-283l-65 340h-295l-66 -340h-250zM367 539h219l-27 137q-6 34 -20 110.5t-21 116.5t-18 113t-21 151h-8q-9 -79 -19.5 -151.5t-17 -111t-21 -114.5t-20.5 -108zM385 1608l135 325h266l-204 -325h-197z" />
<glyph unicode="&#xc2;" horiz-adv-x="983" d="M12 0l336 1522h287l336 -1522h-283l-65 340h-295l-66 -340h-250zM213 1604l184 329h187l184 -329h-162l-117 137l-114 -137h-162zM367 539h219l-27 137q-6 34 -20 110.5t-21 116.5t-18 113t-21 151h-8q-9 -79 -19.5 -151.5t-17 -111t-21 -114.5t-20.5 -108z" />
<glyph unicode="&#xc3;" horiz-adv-x="983" d="M12 0l336 1522h287l336 -1522h-283l-65 340h-295l-66 -340h-250zM178 1583q0 326 191 326q40 0 78 -18t62 -39.5t51.5 -39.5t47.5 -18q30 0 45 25.5t15 85.5h139q0 -326 -191 -326q-40 0 -78 18t-62.5 39.5t-51.5 39.5t-47 18q-62 0 -62 -111h-137zM367 539h219l-27 137 q-6 34 -20 110.5t-21 116.5t-18 113t-21 151h-8q-9 -79 -19.5 -151.5t-17 -111t-21 -114.5t-20.5 -108z" />
<glyph unicode="&#xc4;" horiz-adv-x="983" d="M12 0l336 1522h287l336 -1522h-283l-65 340h-295l-66 -340h-250zM205 1606v264h231v-264h-231zM367 539h219l-27 137q-6 34 -20 110.5t-21 116.5t-18 113t-21 151h-8q-9 -79 -19.5 -151.5t-17 -111t-21 -114.5t-20.5 -108zM547 1606v264h233v-264h-233z" />
<glyph unicode="&#xc5;" horiz-adv-x="983" d="M12 0l328 1477q-45 61 -45 153q0 98 53.5 165t140.5 67q88 0 142.5 -67t54.5 -165q0 -86 -43 -151l328 -1479h-283l-65 340h-295l-66 -340h-250zM367 539h219l-27 137q-6 34 -20 110.5t-21 116.5t-18 113t-21 151h-8q-9 -79 -19.5 -151.5t-17 -111t-21 -114.5t-20.5 -108 zM434 1626q0 -108 55 -108q31 0 44.5 31.5t13.5 76.5q0 107 -58 107q-55 0 -55 -107z" />
<glyph unicode="&#xc6;" horiz-adv-x="1437" d="M6 0l514 1516h860v-246h-417v-359h297v-231h-297v-440h436v-240h-723v379h-258l-135 -379h-277zM489 584h187v622h-4z" />
<glyph unicode="&#xc7;" horiz-adv-x="1005" d="M49 758q0 784 475 784q214 0 314 -136t118 -419l-272 -24q-14 179 -49.5 251t-110.5 72q-100 0 -142 -126.5t-42 -401.5q0 -278 43 -406.5t143 -128.5q79 0 117 72.5t55 263.5l273 -27q-11 -95 -30 -172.5t-52 -148.5t-78.5 -120t-112 -79.5t-149.5 -34.5l-17 -69 q33 29 93 29q57 0 93 -37.5t36 -112.5q0 -88 -62 -142.5t-176 -54.5q-134 0 -252 66l51 104q35 -22 87 -37.5t102 -15.5q78 0 78 62q0 51 -52 51q-33 0 -61 -31l-86 37l45 160q-187 36 -283 223t-96 549z" />
<glyph unicode="&#xc8;" horiz-adv-x="858" d="M96 0v1516h705v-246h-418v-359h299v-231h-299v-440h436v-240h-723zM147 1933h267l135 -325h-197z" />
<glyph unicode="&#xc9;" horiz-adv-x="858" d="M96 0v1516h705v-246h-418v-359h299v-231h-299v-440h436v-240h-723zM283 1608l135 325h266l-205 -325h-196z" />
<glyph unicode="&#xca;" horiz-adv-x="858" d="M96 0v1516h705v-246h-418v-359h299v-231h-299v-440h436v-240h-723zM152 1604l184 329h186l185 -329h-162l-117 137l-115 -137h-161z" />
<glyph unicode="&#xcb;" horiz-adv-x="858" d="M96 0v1516h705v-246h-418v-359h299v-231h-299v-440h436v-240h-723zM143 1606v264h232v-264h-232zM485 1606v264h234v-264h-234z" />
<glyph unicode="&#xcc;" horiz-adv-x="499" d="M-51 1935h266l135 -325h-196zM106 0v1516h287v-1516h-287z" />
<glyph unicode="&#xcd;" horiz-adv-x="499" d="M106 0v1516h287v-1516h-287zM145 1610l136 325h266l-205 -325h-197z" />
<glyph unicode="&#xce;" horiz-adv-x="499" d="M-29 1606l185 329h186l184 -329h-161l-117 137l-115 -137h-162zM106 0v1516h287v-1516h-287z" />
<glyph unicode="&#xcf;" horiz-adv-x="499" d="M-39 1608v264h232v-264h-232zM106 0v1516h287v-1516h-287zM303 1608v264h234v-264h-234z" />
<glyph unicode="&#xd0;" horiz-adv-x="1044" d="M49 760q0 774 473 774q192 0 291.5 -131t134.5 -426l-260 -31q-17 187 -54 259.5t-112 72.5q-64 0 -103 -47.5t-60 -162t-21 -306.5q0 -282 50 -408.5t147 -126.5q87 0 133 71.5t53 227.5h-174v222h420v-748h-191l-4 186h-2q-30 -90 -104.5 -145t-178.5 -55 q-231 0 -334.5 187.5t-103.5 586.5zM260 1954h162q9 -89 33 -131.5t67 -42.5q86 0 101 174h161q-8 -170 -69 -257t-193 -87q-130 0 -192 87t-70 257z" />
<glyph unicode="&#xd1;" horiz-adv-x="1069" d="M96 0v1516h301l244 -642q90 -265 100 -301h7v943h227v-1516h-246l-297 741q-68 176 -104 295h-6v-1036h-226zM225 1583q0 326 191 326q40 0 78 -18t62 -39.5t51.5 -39.5t47.5 -18q30 0 45 25.5t15 85.5h139q0 -326 -190 -326q-40 0 -78.5 18t-63 39.5t-51.5 39.5t-47 18 q-62 0 -62 -111h-137z" />
<glyph unicode="&#xd2;" horiz-adv-x="1071" d="M49 758q0 203 35 354t100.5 242.5t153 135.5t199.5 44q111 0 198.5 -44t153 -135.5t100.5 -242.5t35 -354t-35 -353.5t-100.5 -241.5t-153 -135t-198.5 -44q-112 0 -199.5 44t-153 135t-100.5 241.5t-35 353.5zM254 1933h266l135 -325h-196zM340 758q0 -269 46.5 -398 t150.5 -129t149 128.5t45 398.5q0 269 -45 394.5t-149 125.5t-150.5 -126t-46.5 -394z" />
<glyph unicode="&#xd3;" horiz-adv-x="1071" d="M49 758q0 203 35 354t100.5 242.5t153 135.5t199.5 44q111 0 198.5 -44t153 -135.5t100.5 -242.5t35 -354t-35 -353.5t-100.5 -241.5t-153 -135t-198.5 -44q-112 0 -199.5 44t-153 135t-100.5 241.5t-35 353.5zM340 758q0 -269 46.5 -398t150.5 -129t149 128.5t45 398.5 q0 269 -45 394.5t-149 125.5t-150.5 -126t-46.5 -394zM389 1608l135 325h267l-205 -325h-197z" />
<glyph unicode="&#xd4;" horiz-adv-x="1071" d="M49 758q0 203 35 354t100.5 242.5t153 135.5t199.5 44q111 0 198.5 -44t153 -135.5t100.5 -242.5t35 -354t-35 -353.5t-100.5 -241.5t-153 -135t-198.5 -44q-112 0 -199.5 44t-153 135t-100.5 241.5t-35 353.5zM258 1604l184 329h187l184 -329h-162l-116 137l-115 -137 h-162zM340 758q0 -269 46.5 -398t150.5 -129t149 128.5t45 398.5q0 269 -45 394.5t-149 125.5t-150.5 -126t-46.5 -394z" />
<glyph unicode="&#xd5;" horiz-adv-x="1071" d="M49 758q0 203 35 354t100.5 242.5t153 135.5t199.5 44q111 0 198.5 -44t153 -135.5t100.5 -242.5t35 -354t-35 -353.5t-100.5 -241.5t-153 -135t-198.5 -44q-112 0 -199.5 44t-153 135t-100.5 241.5t-35 353.5zM223 1583q0 326 191 326q40 0 78 -18t62 -39.5t51.5 -39.5 t47.5 -18q30 0 45 25.5t15 85.5h139q0 -326 -190 -326q-40 0 -78.5 18t-63 39.5t-51.5 39.5t-47 18q-62 0 -62 -111h-137zM340 758q0 -269 46.5 -398t150.5 -129t149 128.5t45 398.5q0 269 -45 394.5t-149 125.5t-150.5 -126t-46.5 -394z" />
<glyph unicode="&#xd6;" horiz-adv-x="1071" d="M49 758q0 203 35 354t100.5 242.5t153 135.5t199.5 44q111 0 198.5 -44t153 -135.5t100.5 -242.5t35 -354t-35 -353.5t-100.5 -241.5t-153 -135t-198.5 -44q-112 0 -199.5 44t-153 135t-100.5 241.5t-35 353.5zM248 1606v264h231v-264h-231zM340 758q0 -269 46.5 -398 t150.5 -129t149 128.5t45 398.5q0 269 -45 394.5t-149 125.5t-150.5 -126t-46.5 -394zM590 1606v264h233v-264h-233z" />
<glyph unicode="&#xd7;" horiz-adv-x="972" d="M82 428l250 250l-250 252l156 153l249 -247l248 247l156 -155l-248 -248l250 -250l-156 -156l-250 250l-251 -250z" />
<glyph unicode="&#xd8;" horiz-adv-x="1071" d="M8 -33l139 258q-98 194 -98 533q0 203 35 354t100.5 242.5t153 135.5t199.5 44q159 0 268 -90l100 184l156 -82l-137 -254q100 -186 100 -534q0 -203 -35 -353.5t-100.5 -241.5t-153 -135t-198.5 -44q-158 0 -271 88l-98 -185zM332 758q0 -118 8 -197l336 625 q-49 94 -139 94q-105 0 -155 -128.5t-50 -393.5zM393 332q50 -103 144 -103q105 0 154.5 131t49.5 398q0 124 -8 203z" />
<glyph unicode="&#xd9;" horiz-adv-x="1024" d="M84 477v1039h287v-1020q0 -147 33.5 -209t117.5 -62q82 0 116 62t34 205v1024h268v-1035q0 -252 -98.5 -374.5t-325.5 -122.5q-229 0 -330.5 123.5t-101.5 369.5zM236 1933h266l135 -325h-197z" />
<glyph unicode="&#xda;" horiz-adv-x="1024" d="M84 477v1039h287v-1020q0 -147 33.5 -209t117.5 -62q82 0 116 62t34 205v1024h268v-1035q0 -252 -98.5 -374.5t-325.5 -122.5q-229 0 -330.5 123.5t-101.5 369.5zM371 1608l135 325h266l-205 -325h-196z" />
<glyph unicode="&#xdb;" horiz-adv-x="1024" d="M84 477v1039h287v-1020q0 -147 33.5 -209t117.5 -62q82 0 116 62t34 205v1024h268v-1035q0 -252 -98.5 -374.5t-325.5 -122.5q-229 0 -330.5 123.5t-101.5 369.5zM240 1604l184 329h186l185 -329h-162l-117 137l-115 -137h-161z" />
<glyph unicode="&#xdc;" horiz-adv-x="1024" d="M84 477v1039h287v-1020q0 -147 33.5 -209t117.5 -62q82 0 116 62t34 205v1024h268v-1035q0 -252 -98.5 -374.5t-325.5 -122.5q-229 0 -330.5 123.5t-101.5 369.5zM231 1606v264h232v-264h-232zM573 1606v264h234v-264h-234z" />
<glyph unicode="&#xdd;" horiz-adv-x="499" d="M106 0v1516h287v-1516h-287zM109 1626v256h282v-256h-282z" />
<glyph unicode="&#xde;" horiz-adv-x="966" d="M43 442l250 45q27 -136 71.5 -202t129.5 -66q68 0 102.5 40.5t34.5 100.5q0 52 -30.5 103t-79.5 95t-107.5 90t-117.5 98t-108 109.5t-79.5 133.5t-30.5 160q0 179 110 284t297 105q93 0 163.5 -29.5t119 -87.5t80.5 -132t55 -175l-254 -63q-27 124 -66.5 181.5 t-107.5 57.5q-55 0 -86 -33t-31 -90q0 -52 30.5 -102.5t79.5 -94t107.5 -89.5t117.5 -98.5t108 -110t79.5 -134t30.5 -161.5q0 -169 -107 -277.5t-282 -117.5l-18 -74q33 29 92 29q57 0 94 -37.5t37 -112.5q0 -88 -63 -142.5t-177 -54.5q-137 0 -249 66l49 104 q35 -22 87 -37.5t103 -15.5q78 0 78 62q0 51 -51 51q-36 0 -64 -31l-86 37l47 162q-83 13 -145.5 51.5t-103 101.5t-66 134.5t-43.5 166.5z" />
<glyph unicode="&#xdf;" horiz-adv-x="995" d="M96 0v1063q0 222 105.5 337.5t310.5 115.5q184 0 276.5 -95.5t92.5 -257.5q0 -109 -53 -197t-144 -126q123 -33 200 -140t77 -276q0 -224 -99 -329t-270 -105q-80 0 -180 28l51 224q43 -17 84 -17q151 0 151 207q0 133 -58.5 202t-184.5 91v178q83 12 125.5 73.5 t42.5 158.5q0 155 -123 155q-66 0 -97.5 -53t-31.5 -168v-1069h-275z" />
<glyph unicode="&#xe0;" horiz-adv-x="856" d="M35 279q0 164 132 280.5t349 165.5v45q0 59 -19 85t-67 26q-57 0 -120.5 -36t-108.5 -79l-135 172q83 82 190 126t221 44q163 0 233 -80t70 -248v-514q0 -187 23 -266h-271q-16 59 -16 143q-96 -153 -254 -153q-103 0 -165 71t-62 218zM145 1522h267l135 -326h-197z M297 319q0 -53 22.5 -79.5t61.5 -26.5q64 0 135 66v256q-110 -33 -164.5 -89t-54.5 -127z" />
<glyph unicode="&#xe1;" horiz-adv-x="856" d="M35 279q0 164 132 280.5t349 165.5v45q0 59 -19 85t-67 26q-57 0 -120.5 -36t-108.5 -79l-135 172q83 82 190 126t221 44q163 0 233 -80t70 -248v-514q0 -187 23 -266h-271q-16 59 -16 143q-96 -153 -254 -153q-103 0 -165 71t-62 218zM281 1196l135 326h266l-205 -326 h-196zM297 319q0 -53 22.5 -79.5t61.5 -26.5q64 0 135 66v256q-110 -33 -164.5 -89t-54.5 -127z" />
<glyph unicode="&#xe2;" horiz-adv-x="856" d="M35 279q0 164 132 280.5t349 165.5v45q0 59 -19 85t-67 26q-57 0 -120.5 -36t-108.5 -79l-135 172q83 82 190 126t221 44q163 0 233 -80t70 -248v-514q0 -187 23 -266h-271q-16 59 -16 143q-96 -153 -254 -153q-103 0 -165 71t-62 218zM150 1192l184 330h186l185 -330 h-162l-117 137l-115 -137h-161zM297 319q0 -53 22.5 -79.5t61.5 -26.5q64 0 135 66v256q-110 -33 -164.5 -89t-54.5 -127z" />
<glyph unicode="&#xe3;" horiz-adv-x="856" d="M35 279q0 164 132 280.5t349 165.5v45q0 59 -19 85t-67 26q-57 0 -120.5 -36t-108.5 -79l-135 172q83 82 190 126t221 44q163 0 233 -80t70 -248v-514q0 -187 23 -266h-271q-16 59 -16 143q-96 -153 -254 -153q-103 0 -165 71t-62 218zM117 1171q0 326 190 326 q40 0 78 -18t62.5 -39.5t52 -39.5t47.5 -18q30 0 44.5 25.5t14.5 85.5h139q0 -326 -190 -326q-40 0 -78.5 18t-63 39.5t-51.5 39.5t-47 18q-61 0 -61 -111h-137zM297 319q0 -53 22.5 -79.5t61.5 -26.5q64 0 135 66v256q-110 -33 -164.5 -89t-54.5 -127z" />
<glyph unicode="&#xe4;" horiz-adv-x="856" d="M35 279q0 164 132 280.5t349 165.5v45q0 59 -19 85t-67 26q-57 0 -120.5 -36t-108.5 -79l-135 172q83 82 190 126t221 44q163 0 233 -80t70 -248v-514q0 -187 23 -266h-271q-16 59 -16 143q-96 -153 -254 -153q-103 0 -165 71t-62 218zM141 1194v264h232v-264h-232z M297 319q0 -53 22.5 -79.5t61.5 -26.5q64 0 135 66v256q-110 -33 -164.5 -89t-54.5 -127zM483 1194v264h234v-264h-234z" />
<glyph unicode="&#xe5;" horiz-adv-x="856" d="M35 279q0 164 132 280.5t349 165.5v45q0 59 -19 85t-67 26q-57 0 -120.5 -36t-108.5 -79l-135 172q83 82 190 126t221 44q163 0 233 -80t70 -248v-514q0 -187 23 -266h-271q-16 59 -16 143q-96 -153 -254 -153q-103 0 -165 71t-62 218zM233 1384q0 98 53.5 164t141.5 66 q87 0 141 -66t54 -164q0 -99 -53 -165t-142 -66t-142 66t-53 165zM297 319q0 -53 22.5 -79.5t61.5 -26.5q64 0 135 66v256q-110 -33 -164.5 -89t-54.5 -127zM371 1378q0 -106 57 -106q55 0 55 106q0 109 -55 109q-57 0 -57 -109z" />
<glyph unicode="&#xe6;" horiz-adv-x="1314" d="M35 279q0 167 131 282t350 164v45q0 59 -19 85t-67 26q-57 0 -120.5 -36t-108.5 -79l-135 172q83 82 190 126t221 44q153 0 199 -113q36 56 95 84.5t130 28.5q98 0 170.5 -41t116.5 -118t65 -179t21 -231v-88h-504q2 -124 37.5 -192.5t105.5 -68.5q58 0 94 42t58 120 l211 -73q-45 -142 -139 -218.5t-230 -76.5q-217 0 -317 186q-68 -92 -145 -135t-183 -43q-103 0 -165 71t-62 216zM297 322q0 -53 22.5 -80t61.5 -27q78 0 164 74q-24 100 -29 200v46q-113 -32 -166 -88.5t-53 -124.5zM772 631h248q-1 138 -31 201t-90 63q-122 0 -127 -264z " />
<glyph unicode="&#xe7;" horiz-adv-x="831" d="M39 545q0 283 110 425t289 142q168 0 251.5 -98t111.5 -283l-252 -39q-16 110 -39.5 157.5t-73.5 47.5q-64 0 -94.5 -80t-30.5 -272t28.5 -276.5t96.5 -84.5q52 0 80 51t43 168l246 -36q-59 -379 -354 -387l-19 -72q33 29 92 29q55 0 92 -37.5t37 -112.5 q0 -88 -62.5 -142.5t-176.5 -54.5q-138 0 -250 66l49 104q88 -53 190 -53q78 0 78 62q0 51 -51 51q-32 0 -63 -31l-84 37l47 168q-136 37 -213.5 175.5t-77.5 375.5z" />
<glyph unicode="&#xe8;" horiz-adv-x="843" d="M39 545q0 144 29.5 254t83 176.5t124 99.5t156.5 33q98 0 170.5 -41t116.5 -118t65 -179t21 -231v-88h-504q2 -124 37.5 -192.5t105.5 -68.5q58 0 94 42t60 120l209 -73q-45 -142 -138 -218.5t-229 -76.5q-187 0 -294 140t-107 421zM139 1522h267l135 -326h-197zM303 631 h248q-1 139 -30.5 201.5t-88.5 62.5q-124 0 -129 -264z" />
<glyph unicode="&#xe9;" horiz-adv-x="843" d="M39 545q0 144 29.5 254t83 176.5t124 99.5t156.5 33q98 0 170.5 -41t116.5 -118t65 -179t21 -231v-88h-504q2 -124 37.5 -192.5t105.5 -68.5q58 0 94 42t60 120l209 -73q-45 -142 -138 -218.5t-229 -76.5q-187 0 -294 140t-107 421zM274 1196l136 326h266l-205 -326h-197 zM303 631h248q-1 139 -30.5 201.5t-88.5 62.5q-124 0 -129 -264z" />
<glyph unicode="&#xea;" horiz-adv-x="843" d="M39 545q0 144 29.5 254t83 176.5t124 99.5t156.5 33q98 0 170.5 -41t116.5 -118t65 -179t21 -231v-88h-504q2 -124 37.5 -192.5t105.5 -68.5q58 0 94 42t60 120l209 -73q-45 -142 -138 -218.5t-229 -76.5q-187 0 -294 140t-107 421zM143 1192l185 330h186l184 -330h-161 l-117 137l-115 -137h-162zM303 631h248q-1 139 -30.5 201.5t-88.5 62.5q-124 0 -129 -264z" />
<glyph unicode="&#xeb;" horiz-adv-x="843" d="M39 545q0 144 29.5 254t83 176.5t124 99.5t156.5 33q98 0 170.5 -41t116.5 -118t65 -179t21 -231v-88h-504q2 -124 37.5 -192.5t105.5 -68.5q58 0 94 42t60 120l209 -73q-45 -142 -138 -218.5t-229 -76.5q-187 0 -294 140t-107 421zM133 1194v264h232v-264h-232zM303 631 h248q-1 139 -30.5 201.5t-88.5 62.5q-124 0 -129 -264zM475 1194v264h234v-264h-234z" />
<glyph unicode="&#xec;" horiz-adv-x="454" d="M-80 1522h266l136 -326h-197zM90 0v1092h275v-1092h-275z" />
<glyph unicode="&#xed;" horiz-adv-x="454" d="M90 0v1092h275v-1092h-275zM131 1196l135 326h266l-204 -326h-197z" />
<glyph unicode="&#xee;" horiz-adv-x="454" d="M-49 1192l184 330h187l184 -330h-162l-117 137l-114 -137h-162zM90 0v1092h275v-1092h-275z" />
<glyph unicode="&#xef;" horiz-adv-x="454" d="M-61 1194v264h231v-264h-231zM90 0v1092h275v-1092h-275zM281 1194v264h233v-264h-233z" />
<glyph unicode="&#xf0;" horiz-adv-x="890" d="M-2 -172q0 73 39 131t110 94q-86 50 -86 144q0 50 33 103.5t88 94.5q-135 110 -135 318q0 185 103.5 290t265.5 105q166 0 260 -102q39 41 93.5 71.5t100.5 38.5v-254q-52 0 -108 -10q20 -72 20 -139q0 -190 -101.5 -292t-264.5 -102q-60 0 -109 15q-24 -21 -24 -47 q0 -27 16 -38.5t61 -17.5l136 -14q193 -17 273.5 -86.5t80.5 -208.5q0 -151 -129.5 -241.5t-343.5 -90.5q-188 0 -283.5 62t-95.5 176zM182 1530h162q9 -89 33 -131.5t67 -42.5q86 0 101 174h162q-8 -170 -69.5 -257t-193.5 -87q-130 0 -192 87t-70 257zM252 -117 q0 -68 41.5 -98.5t128.5 -30.5q84 0 131 35t47 96q0 55 -33.5 81.5t-122.5 35.5l-137 14q-55 -58 -55 -133zM309 709q0 -207 109 -207q108 0 108 207q0 106 -25.5 153t-82.5 47t-83 -48.5t-26 -151.5z" />
<glyph unicode="&#xf1;" d="M80 0v1092h274v-138q43 60 118.5 107t158.5 47q102 0 155.5 -58t53.5 -198v-852h-275v758q0 54 -15.5 79t-51.5 25q-64 0 -144 -71v-791h-274zM143 1171q0 326 191 326q40 0 78 -18t62 -39.5t51.5 -39.5t47.5 -18q30 0 45 25.5t15 85.5h139q0 -326 -190 -326 q-40 0 -78.5 18t-63 39.5t-51.5 39.5t-47 18q-61 0 -61 -111h-138z" />
<glyph unicode="&#xf2;" horiz-adv-x="882" d="M39 547q0 283 108.5 422t294.5 139q183 0 293.5 -139.5t110.5 -421.5q0 -279 -111 -420t-293 -141q-183 0 -293 141t-110 420zM160 1522h266l135 -326h-196zM311 549q0 -186 29.5 -272.5t101.5 -86.5q69 0 98 82t29 277q0 185 -27.5 264.5t-99.5 79.5q-71 0 -101 -77 t-30 -267z" />
<glyph unicode="&#xf3;" horiz-adv-x="882" d="M39 547q0 283 108.5 422t294.5 139q183 0 293.5 -139.5t110.5 -421.5q0 -279 -111 -420t-293 -141q-183 0 -293 141t-110 420zM295 1196l135 326h266l-204 -326h-197zM311 549q0 -186 29.5 -272.5t101.5 -86.5q69 0 98 82t29 277q0 185 -27.5 264.5t-99.5 79.5 q-71 0 -101 -77t-30 -267z" />
<glyph unicode="&#xf4;" horiz-adv-x="882" d="M39 547q0 283 108.5 422t294.5 139q183 0 293.5 -139.5t110.5 -421.5q0 -279 -111 -420t-293 -141q-183 0 -293 141t-110 420zM164 1192l184 330h187l184 -330h-162l-117 137l-114 -137h-162zM311 549q0 -186 29.5 -272.5t101.5 -86.5q69 0 98 82t29 277 q0 185 -27.5 264.5t-99.5 79.5q-71 0 -101 -77t-30 -267z" />
<glyph unicode="&#xf5;" horiz-adv-x="882" d="M39 547q0 283 108.5 422t294.5 139q183 0 293.5 -139.5t110.5 -421.5q0 -279 -111 -420t-293 -141q-183 0 -293 141t-110 420zM129 1171q0 326 190 326q40 0 78 -18t62.5 -39.5t52 -39.5t47.5 -18q30 0 44.5 25.5t14.5 85.5h140q0 -326 -191 -326q-40 0 -78 18 t-62.5 39.5t-51.5 39.5t-47 18q-62 0 -62 -111h-137zM311 549q0 -186 29.5 -272.5t101.5 -86.5q69 0 98 82t29 277q0 185 -27.5 264.5t-99.5 79.5q-71 0 -101 -77t-30 -267z" />
<glyph unicode="&#xf6;" horiz-adv-x="882" d="M39 547q0 283 108.5 422t294.5 139q183 0 293.5 -139.5t110.5 -421.5q0 -279 -111 -420t-293 -141q-183 0 -293 141t-110 420zM156 1194v264h231v-264h-231zM311 549q0 -186 29.5 -272.5t101.5 -86.5q69 0 98 82t29 277q0 185 -27.5 264.5t-99.5 79.5q-71 0 -101 -77 t-30 -267zM498 1194v264h233v-264h-233z" />
<glyph unicode="&#xf7;" horiz-adv-x="972" d="M72 561v240h829v-240h-829zM369 176v256h235v-256h-235zM369 928v256h235v-256h-235z" />
<glyph unicode="&#xf8;" horiz-adv-x="882" d="M39 545q0 282 109 422.5t294 140.5q89 0 164 -35l70 135l160 -78l-91 -176q101 -147 101 -409q0 -279 -111 -420t-293 -141q-95 0 -168 36l-63 -129l-164 76l88 176q-96 145 -96 402zM301 545q0 -39 4 -101l207 412q-27 27 -70 27q-72 0 -106.5 -78.5t-34.5 -259.5z M367 233q28 -32 75 -32q70 0 104 80.5t34 263.5q0 23 -5 106z" />
<glyph unicode="&#xf9;" d="M74 240v852h272v-762q0 -53 16.5 -79t55.5 -26q56 0 139 74v793h277v-1092h-277v137q-43 -58 -117.5 -104.5t-154.5 -46.5q-105 0 -158 56.5t-53 197.5zM174 1522h266l135 -326h-196z" />
<glyph unicode="&#xfa;" d="M74 240v852h272v-762q0 -53 16.5 -79t55.5 -26q56 0 139 74v793h277v-1092h-277v137q-43 -58 -117.5 -104.5t-154.5 -46.5q-105 0 -158 56.5t-53 197.5zM309 1196l135 326h267l-205 -326h-197z" />
<glyph unicode="&#xfb;" d="M74 240v852h272v-762q0 -53 16.5 -79t55.5 -26q56 0 139 74v793h277v-1092h-277v137q-43 -58 -117.5 -104.5t-154.5 -46.5q-105 0 -158 56.5t-53 197.5zM178 1192l184 330h187l184 -330h-162l-116 137l-115 -137h-162z" />
<glyph unicode="&#xfc;" d="M74 240v852h272v-762q0 -53 16.5 -79t55.5 -26q56 0 139 74v793h277v-1092h-277v137q-43 -58 -117.5 -104.5t-154.5 -46.5q-105 0 -158 56.5t-53 197.5zM170 1194v264h231v-264h-231zM512 1194v264h233v-264h-233z" />
<glyph unicode="&#xfd;" horiz-adv-x="454" d="M90 0v1092h275v-1092h-275z" />
<glyph unicode="&#xfe;" horiz-adv-x="806" d="M10 252l203 94q33 -80 82.5 -121t107.5 -41q47 0 77 23.5t30 66.5q0 34 -25 63t-65.5 52t-89.5 48t-97.5 58t-89 72.5t-65.5 100.5t-25 135q0 78 32 139.5t83.5 97t109.5 54t117 18.5q134 0 223 -61t144 -191l-205 -94q-54 135 -158 135q-39 0 -62.5 -22t-23.5 -60 q0 -35 25 -65t65.5 -54t89.5 -49t97.5 -57.5t89 -72t65.5 -99.5t25 -133q0 -134 -88 -215t-240 -90l-18 -76q33 29 92 29q57 0 94 -37.5t37 -112.5q0 -88 -62.5 -142.5t-176.5 -54.5q-138 0 -250 66l49 104q35 -22 87 -37.5t103 -15.5q78 0 78 62q0 51 -51 51q-36 0 -64 -31 l-86 37l48 164q-212 34 -312 262z" />
<glyph unicode="&#xff;" horiz-adv-x="825" d="M-20 -385l47 221q63 -14 110 -14q53 0 78.5 24t40.5 84l20 72l-274 1090h283l92 -506q26 -172 39 -285h6q17 137 43 283l98 508h260l-309 -1192q-43 -168 -114.5 -241t-215.5 -73q-119 0 -204 29zM125 1194v264h231v-264h-231zM467 1194v264h233v-264h-233z" />
<glyph unicode="&#x11e;" horiz-adv-x="1044" d="M49 760q0 774 473 774q192 0 291.5 -131t134.5 -426l-260 -31q-17 187 -54 259.5t-112 72.5q-64 0 -103 -47.5t-60 -162t-21 -306.5q0 -282 50 -408.5t147 -126.5q87 0 133 71.5t53 227.5h-174v222h420v-748h-191l-4 186h-2q-30 -90 -104.5 -145t-178.5 -55 q-231 0 -334.5 187.5t-103.5 586.5zM260 1954h162q9 -89 33 -131.5t67 -42.5q86 0 101 174h161q-8 -170 -69 -257t-193 -87q-130 0 -192 87t-70 257z" />
<glyph unicode="&#x11f;" horiz-adv-x="890" d="M-2 -172q0 73 39 131t110 94q-86 50 -86 144q0 50 33 103.5t88 94.5q-135 110 -135 318q0 185 103.5 290t265.5 105q166 0 260 -102q39 41 93.5 71.5t100.5 38.5v-254q-52 0 -108 -10q20 -72 20 -139q0 -190 -101.5 -292t-264.5 -102q-60 0 -109 15q-24 -21 -24 -47 q0 -27 16 -38.5t61 -17.5l136 -14q193 -17 273.5 -86.5t80.5 -208.5q0 -151 -129.5 -241.5t-343.5 -90.5q-188 0 -283.5 62t-95.5 176zM182 1530h162q9 -89 33 -131.5t67 -42.5q86 0 101 174h162q-8 -170 -69.5 -257t-193.5 -87q-130 0 -192 87t-70 257zM252 -117 q0 -68 41.5 -98.5t128.5 -30.5q84 0 131 35t47 96q0 55 -33.5 81.5t-122.5 35.5l-137 14q-55 -58 -55 -133zM309 709q0 -207 109 -207q108 0 108 207q0 106 -25.5 153t-82.5 47t-83 -48.5t-26 -151.5z" />
<glyph unicode="&#x130;" horiz-adv-x="499" d="M106 0v1516h287v-1516h-287zM109 1626v256h282v-256h-282z" />
<glyph unicode="&#x131;" horiz-adv-x="454" d="M90 0v1092h275v-1092h-275z" />
<glyph unicode="&#x141;" horiz-adv-x="833" d="M10 614v238l94 33v631h289v-531l148 51v-237l-148 -51v-508h422v-240h-711v647z" />
<glyph unicode="&#x142;" horiz-adv-x="505" d="M35 602v219l82 27v668h276v-578l82 27v-220l-82 -26v-719h-276v631z" />
<glyph unicode="&#x152;" horiz-adv-x="1503" d="M49 758q0 203 35 354t100.5 242.5t153 135.5t199.5 44q169 0 260 -139v121h649v-246h-418v-359h299v-231h-299v-440h436v-240h-667v121q-92 -137 -260 -137q-112 0 -199.5 44t-153 135t-100.5 241.5t-35 353.5zM340 758q0 -269 46.5 -398t150.5 -129t149 128.5t45 398.5 q0 269 -45 394.5t-149 125.5t-150.5 -126t-46.5 -394z" />
<glyph unicode="&#x153;" horiz-adv-x="1366" d="M39 545q0 282 109 422.5t294 140.5q168 0 256 -131q94 131 256 131q98 0 171 -41t117 -118t65.5 -179t21.5 -231v-88h-504q0 -123 36 -192t106 -69q58 0 93.5 41.5t59.5 120.5l211 -73q-47 -142 -139.5 -218.5t-228.5 -76.5q-172 0 -263 131q-91 -131 -258 -131 q-183 0 -293 141t-110 420zM311 545q0 -185 29.5 -270t101.5 -85q69 0 98 80.5t29 274.5q0 186 -27.5 267t-99.5 81q-71 0 -101 -78t-30 -270zM825 631h248q0 138 -29.5 201t-89.5 63q-121 0 -129 -264z" />
<glyph unicode="&#x15e;" horiz-adv-x="966" d="M43 442l250 45q27 -136 71.5 -202t129.5 -66q68 0 102.5 40.5t34.5 100.5q0 52 -30.5 103t-79.5 95t-107.5 90t-117.5 98t-108 109.5t-79.5 133.5t-30.5 160q0 179 110 284t297 105q93 0 163.5 -29.5t119 -87.5t80.5 -132t55 -175l-254 -63q-27 124 -66.5 181.5 t-107.5 57.5q-55 0 -86 -33t-31 -90q0 -52 30.5 -102.5t79.5 -94t107.5 -89.5t117.5 -98.5t108 -110t79.5 -134t30.5 -161.5q0 -169 -107 -277.5t-282 -117.5l-18 -74q33 29 92 29q57 0 94 -37.5t37 -112.5q0 -88 -63 -142.5t-177 -54.5q-137 0 -249 66l49 104 q35 -22 87 -37.5t103 -15.5q78 0 78 62q0 51 -51 51q-36 0 -64 -31l-86 37l47 162q-83 13 -145.5 51.5t-103 101.5t-66 134.5t-43.5 166.5z" />
<glyph unicode="&#x15f;" horiz-adv-x="806" d="M10 252l203 94q33 -80 82.5 -121t107.5 -41q47 0 77 23.5t30 66.5q0 34 -25 63t-65.5 52t-89.5 48t-97.5 58t-89 72.5t-65.5 100.5t-25 135q0 78 32 139.5t83.5 97t109.5 54t117 18.5q134 0 223 -61t144 -191l-205 -94q-54 135 -158 135q-39 0 -62.5 -22t-23.5 -60 q0 -35 25 -65t65.5 -54t89.5 -49t97.5 -57.5t89 -72t65.5 -99.5t25 -133q0 -134 -88 -215t-240 -90l-18 -76q33 29 92 29q57 0 94 -37.5t37 -112.5q0 -88 -62.5 -142.5t-176.5 -54.5q-138 0 -250 66l49 104q35 -22 87 -37.5t103 -15.5q78 0 78 62q0 51 -51 51q-36 0 -64 -31 l-86 37l48 164q-212 34 -312 262z" />
<glyph unicode="&#x160;" horiz-adv-x="966" d="M43 442l250 45q27 -136 71.5 -202t129.5 -66q68 0 102.5 40.5t34.5 100.5q0 52 -30.5 103t-79.5 95t-107.5 90t-117.5 98t-108 109.5t-79.5 133.5t-30.5 160q0 179 110 284t297 105q93 0 163.5 -29.5t119 -87.5t80.5 -132t55 -175l-254 -63q-27 124 -66.5 181.5 t-107.5 57.5q-55 0 -86 -33t-31 -90q0 -52 30.5 -102.5t79.5 -94t107.5 -89.5t117.5 -98.5t108 -110t79.5 -134t30.5 -161.5q0 -177 -115.5 -287t-303.5 -110q-87 0 -156.5 23.5t-116.5 62.5t-82 100t-56.5 126t-37.5 150zM211 1935h164l114 -135l115 135h164l-186 -327 h-187z" />
<glyph unicode="&#x161;" horiz-adv-x="806" d="M10 252l203 94q33 -80 82.5 -121t107.5 -41q47 0 77 23.5t30 66.5q0 34 -25 63t-65.5 52t-89.5 48t-97.5 58t-89 72.5t-65.5 100.5t-25 135q0 78 32 139.5t83.5 97t109.5 54t117 18.5q134 0 223 -61t144 -191l-205 -94q-54 135 -158 135q-39 0 -62.5 -22t-23.5 -60 q0 -35 25 -65t65.5 -54t89.5 -49t97.5 -57.5t89 -72t65.5 -99.5t25 -133q0 -142 -98 -224.5t-264 -82.5q-278 0 -398 270zM125 1522h164l114 -136l115 136h164l-186 -328h-187z" />
<glyph unicode="&#x178;" horiz-adv-x="942" d="M-4 1516h291l192 -654h6l193 654h270l-334 -969v-547h-288v547zM184 1606v264h232v-264h-232zM526 1606v264h234v-264h-234z" />
<glyph unicode="&#x17d;" horiz-adv-x="903" d="M29 0v217l516 1053h-475v246h790v-226l-516 -1050h516v-240h-831zM172 1933h164l115 -135l114 135h164l-186 -327h-187z" />
<glyph unicode="&#x17e;" horiz-adv-x="763" d="M33 0v168l370 713h-335v211h647v-177l-375 -714h395v-201h-702zM102 1522h164l115 -136l115 136h163l-186 -328h-186z" />
<glyph unicode="&#x192;" horiz-adv-x="667" d="M-139 -406l30 216q35 -5 60 -5q53 0 79.5 25.5t35.5 87.5l100 741h-123l27 207h123l49 348q21 162 104 234t264 72q49 0 105 -7l-31 -219q-32 4 -66 4q-46 0 -73 -21.5t-35 -80.5l-45 -330h153l-26 -207h-152l-108 -782q-21 -154 -102.5 -221.5t-260.5 -67.5 q-54 0 -108 6z" />
<glyph unicode="&#x2c6;" horiz-adv-x="833" d="M139 1192l185 330h186l184 -330h-162l-116 137l-115 -137h-162z" />
<glyph unicode="&#x2da;" horiz-adv-x="819" d="M215 1384q0 98 53.5 164t141.5 66q87 0 140.5 -66t53.5 -164q0 -99 -52.5 -165t-141.5 -66t-142 66t-53 165zM352 1378q0 -106 58 -106q55 0 55 106q0 109 -55 109q-58 0 -58 -109z" />
<glyph unicode="&#x2dc;" horiz-adv-x="815" d="M94 1171q0 326 191 326q40 0 78 -18t62 -39.5t51.5 -39.5t47.5 -18q30 0 45 25.5t15 85.5h139q0 -326 -191 -326q-40 0 -78 18t-62.5 39.5t-51.5 39.5t-47 18q-62 0 -62 -111h-137z" />
<glyph unicode="&#x2000;" horiz-adv-x="977" />
<glyph unicode="&#x2001;" horiz-adv-x="1954" />
<glyph unicode="&#x2002;" horiz-adv-x="977" />
<glyph unicode="&#x2003;" horiz-adv-x="1954" />
<glyph unicode="&#x2004;" horiz-adv-x="651" />
<glyph unicode="&#x2005;" horiz-adv-x="488" />
<glyph unicode="&#x2006;" horiz-adv-x="325" />
<glyph unicode="&#x2007;" horiz-adv-x="325" />
<glyph unicode="&#x2008;" horiz-adv-x="244" />
<glyph unicode="&#x2009;" horiz-adv-x="390" />
<glyph unicode="&#x200a;" horiz-adv-x="108" />
<glyph unicode="&#x2010;" horiz-adv-x="587" d="M63 514v236h459v-236h-459z" />
<glyph unicode="&#x2011;" horiz-adv-x="587" d="M63 514v236h459v-236h-459z" />
<glyph unicode="&#x2012;" horiz-adv-x="587" d="M63 514v236h459v-236h-459z" />
<glyph unicode="&#x2013;" horiz-adv-x="948" d="M63 514v236h820v-236h-820z" />
<glyph unicode="&#x2014;" horiz-adv-x="1226" d="M63 514v236h1100v-236h-1100z" />
<glyph unicode="&#x2018;" horiz-adv-x="468" d="M84 934v289l141 293h131l-90 -275h119v-307h-301z" />
<glyph unicode="&#x2019;" horiz-adv-x="468" d="M84 1210v306h301v-289l-141 -293h-131l90 276h-119z" />
<glyph unicode="&#x201a;" horiz-adv-x="468" d="M84 0v305h301v-289l-141 -290h-131l90 274h-119z" />
<glyph unicode="&#x201c;" horiz-adv-x="864" d="M84 934v289l139 293h127l-88 -275h117v-307h-295zM483 934v289l140 293h127l-86 -275h116v-307h-297z" />
<glyph unicode="&#x201d;" horiz-adv-x="864" d="M84 1210v306h297v-289l-139 -293h-129l88 276h-117zM485 1210v306h295v-289l-139 -293h-127l88 276h-117z" />
<glyph unicode="&#x201e;" horiz-adv-x="864" d="M84 0v305h297v-289l-139 -290h-129l88 274h-117zM485 0v305h295v-289l-139 -290h-127l88 274h-117z" />
<glyph unicode="&#x2020;" horiz-adv-x="905" d="M49 762v248l301 -25l-41 531h285l-39 -531l299 25v-248l-299 24l39 -1196h-285l41 1196z" />
<glyph unicode="&#x2021;" horiz-adv-x="903" d="M63 0v246l285 -25l-33 336l33 330l-285 -25v244l285 -25l-39 435h285l-39 -435l285 25v-244l-285 25l33 -330l-33 -336l285 25v-246l-285 27l39 -437h-285l39 437z" />
<glyph unicode="&#x2022;" horiz-adv-x="948" d="M225 717q0 109 70.5 179.5t177.5 70.5q109 0 179.5 -70.5t70.5 -179.5q0 -107 -70.5 -177.5t-179.5 -70.5q-107 0 -177.5 70.5t-70.5 177.5z" />
<glyph unicode="&#x2026;" horiz-adv-x="1486" d="M84 0v305h313v-305h-313zM588 0v305h311v-305h-311zM1090 0v305h311v-305h-311z" />
<glyph unicode="&#x202f;" horiz-adv-x="390" />
<glyph unicode="&#x2030;" horiz-adv-x="2314" d="M49 1085q0 210 76.5 329.5t234.5 119.5q161 0 236.5 -117.5t75.5 -326.5q0 -98 -17 -177.5t-53.5 -141t-97.5 -95t-144 -33.5q-162 0 -236.5 118t-74.5 324zM281 1092q0 -147 16.5 -208t62.5 -61q44 0 61 63t17 201q0 140 -17.5 199.5t-62.5 59.5t-61 -57.5t-16 -196.5z M381 0l631 1516h233l-631 -1516h-233zM956 426q0 211 77.5 331t234.5 120q159 0 235 -118.5t76 -326.5q0 -98 -17.5 -177.5t-53.5 -141t-97 -95.5t-143 -34q-83 0 -144 32.5t-97.5 93t-53.5 139t-17 177.5zM1188 434q0 -148 17 -208t63 -60q45 0 61.5 61.5t16.5 202.5 q0 145 -16.5 200.5t-63.5 55.5q-46 0 -62 -57t-16 -195zM1642 426q0 211 76.5 331t235.5 120t235 -118.5t76 -326.5q0 -98 -17.5 -177.5t-54 -141t-98 -95.5t-143.5 -34q-83 0 -144 32.5t-96.5 93t-52.5 139t-17 177.5zM1874 434q0 -148 17 -208t63 -60q45 0 61.5 61.5 t16.5 202.5q0 145 -16.5 200.5t-63.5 55.5q-46 0 -62 -57t-16 -195z" />
<glyph unicode="&#x2039;" horiz-adv-x="528" d="M27 543l209 538h253l-202 -538l202 -543h-253z" />
<glyph unicode="&#x203a;" horiz-adv-x="528" d="M41 0l201 543l-201 538h252l211 -538l-211 -543h-252z" />
<glyph unicode="&#x2044;" horiz-adv-x="786" d="M-18 0l563 1516h260l-561 -1516h-262z" />
<glyph unicode="&#x205f;" horiz-adv-x="488" />
<glyph unicode="&#x20ac;" horiz-adv-x="1052" d="M23 512v190h118v58v47h-118v190h131q14 129 45 225.5t70.5 155t93.5 94.5t107 49t118 13q195 0 290.5 -114.5t114.5 -368.5l-248 -21q-15 153 -46 208.5t-105 55.5q-37 0 -63.5 -12.5t-49.5 -44t-37 -91.5t-20 -149h258v-190h-266v-49v-56h266v-190h-258q7 -94 22 -155.5 t38.5 -92t47.5 -41t58 -10.5q85 0 118 53.5t48 216.5l252 -18q-7 -83 -20 -147t-42.5 -129.5t-73.5 -108t-116.5 -69.5t-167.5 -27q-93 0 -163.5 27.5t-126.5 88t-92 163.5t-52 249h-131z" />
<glyph unicode="&#x2122;" horiz-adv-x="1333" d="M37 1331v185h483v-185h-151v-692h-181v692h-151zM588 639v877h237l103 -576l102 576h236v-877h-172v549l-99 -549h-145l-98 545v-545h-164z" />
<glyph unicode="&#xe000;" horiz-adv-x="1095" d="M0 0v1096h1096v-1096h-1096z" />
</font>
</defs>
</svg>
